<?xml version="1.0" encoding="UTF-8" standalone="no"?>
<!-- Created with Inkscape (http://www.inkscape.org/) -->

<svg
   width="163.17754mm"
   height="59.456295mm"
   viewBox="0 0 163.17754 59.456295"
   version="1.1"
   id="svg1"
   xmlns="http://www.w3.org/2000/svg"
   xmlns:svg="http://www.w3.org/2000/svg">
  <defs
     id="defs1" />
  <g
     id="layer1"
     transform="translate(-27.521658,-131.22217)">
    <g
       id="g32">
      <text
         style="font-size:35.2777px;font-family:'Luckiest Guy';-inkscape-font-specification:'Luckiest Guy';white-space:pre;opacity:1;fill:#ffffff;stroke-width:0.472441"
         x="27.366629"
         y="187.44008"
         id="text32">Q</text>
      <text
         style="font-size:35.2777px;font-family:'Luckiest Guy';-inkscape-font-specification:'Luckiest Guy';white-space:pre;opacity:1;fill:#ffffff;stroke-width:0.472441"
         x="51.870201"
         y="176.29353"
         id="text31">u</text>
      <text
         style="font-size:35.2777px;font-family:'Luckiest Guy';-inkscape-font-specification:'Luckiest Guy';white-space:pre;opacity:1;fill:#ffffff;stroke-width:0.472441"
         x="77.856102"
         y="173.19174"
         id="text30">i</text>
      <text
         style="font-size:35.2777px;font-family:'Luckiest Guy';-inkscape-font-specification:'Luckiest Guy';white-space:pre;opacity:1;fill:#ffffff;stroke-width:0.472441"
         x="113.19478"
         y="159.1088"
         id="text29"
         transform="rotate(8.0845286)">z</text>
      <text
         style="font-size:35.2777px;font-family:'Luckiest Guy';-inkscape-font-specification:'Luckiest Guy';white-space:pre;opacity:1;fill:#ffffff;stroke-width:0.472441"
         x="107.01659"
         y="178.80168"
         id="text28">a</text>
      <text
         style="font-size:35.2777px;font-family:'Luckiest Guy';-inkscape-font-specification:'Luckiest Guy';white-space:pre;opacity:0.987;fill:#ffffff;stroke-width:0.472441"
         x="127.01434"
         y="176.61095"
         id="text27">n</text>
      <text
         style="font-size:35.2777px;font-family:'Luckiest Guy';-inkscape-font-specification:'Luckiest Guy';white-space:pre;opacity:1;fill:#ffffff;stroke-width:0.472441"
         x="182.7579"
         y="143.88911"
         id="text26"
         transform="rotate(11.708311)">i</text>
      <text
         style="font-size:35.2777px;font-family:'Luckiest Guy';-inkscape-font-specification:'Luckiest Guy';white-space:pre;opacity:1;fill:#ffffff;stroke-width:0.472441"
         x="215.57132"
         y="112.14484"
         id="text25"
         transform="rotate(21.103958)">a</text>
      <g
         id="g17">
        <path
           style="opacity:0;fill:#ffffff;fill-opacity:0;stroke:#000000;stroke-width:0.188799;stroke-opacity:0.999009"
           d="m 35.309832,185.05323 c 52.760653,-29.52111 87.805858,-27.63752 146.851518,2.13323"
           id="path14" />
        <path
           id="path16"
           style="opacity:1;fill:#ffcc00;stroke:#000000;stroke-width:0.125;stroke-opacity:0.999009"
           transform="matrix(0.30126472,0,0,0.30126472,141.36928,111.73986)"
           d="m 103.43875,121.229 c -1.47761,2.31095 -18.672271,-9.83844 -21.221005,-8.83863 -2.548734,0.99982 -7.189548,21.33007 -9.833034,20.61489 -2.643486,-0.71517 3.725764,-20.45655 1.993832,-22.58343 -1.731932,-2.12688 -22.560914,-0.37503 -22.693145,-3.12246 -0.13223,-2.74743 20.666675,-3.01781 22.141778,-5.32738 1.475102,-2.309564 -6.723687,-21.347305 -4.168262,-22.349752 2.555426,-1.002448 9.205057,18.913849 11.854274,19.615804 2.649216,0.701955 18.298254,-13.24163 20.020442,-11.098539 1.72218,2.143092 -15.050057,14.726317 -14.899947,17.461307 0.15011,2.73499 18.282677,13.31723 16.805067,15.62819 z" />
        <path
           id="path16-1"
           style="fill:#ffcc00;stroke:#000000;stroke-width:0.0376581;stroke-opacity:0.999009"
           d="m 89.440681,143.78656 c -0.445152,0.6962 -5.625296,-2.96398 -6.39314,-2.66277 -0.767844,0.30121 -2.165957,6.426 -2.962346,6.21054 -0.796389,-0.21546 1.122441,-6.16284 0.600671,-6.80359 -0.52177,-0.64076 -6.796807,-0.11299 -6.836644,-0.94069 -0.03984,-0.8277 6.22614,-0.90916 6.670537,-1.60495 0.444396,-0.69579 -2.02561,-6.43119 -1.255751,-6.73319 0.76986,-0.30201 2.773159,5.69807 3.571275,5.90955 0.798115,0.21147 5.512618,-3.98924 6.031453,-3.3436 0.518832,0.64564 -4.534052,4.43652 -4.488829,5.26047 0.04522,0.82396 5.507926,4.01202 5.062774,4.70823 z" />
      </g>
    </g>
  </g>
</svg>
