<?xml version="1.0" encoding="iso-8859-1"?>
<!-- Uploaded to: SVG Repo, www.svgrepo.com, Generator: SVG Repo Mixer Tools -->
<svg height="800px" width="800px" version="1.1" id="Layer_1" xmlns="http://www.w3.org/2000/svg" xmlns:xlink="http://www.w3.org/1999/xlink" 
	 viewBox="0 0 512 512" xml:space="preserve">
<path style="fill:#485762;" d="M507.661,347.119H4.339V34.712C4.339,15.542,19.881,0,39.051,0h433.898
	c19.17,0,34.712,15.542,34.712,34.712V347.119z"/>
<g>
	<path style="fill:#BDC3C7;" d="M177.898,295.051c-4.799,0-8.678-3.879-8.678-8.678V182.237c0-4.799,3.879-8.678,8.678-8.678
		c4.799,0,8.678,3.879,8.678,8.678v104.136C186.576,291.172,182.697,295.051,177.898,295.051"/>
	<path style="fill:#BDC3C7;" d="M143.186,225.627c-2.222,0-4.443-0.85-6.135-2.543c-3.393-3.393-3.393-8.878,0-12.271l57.153-57.153
		c3.393-3.393,8.878-3.393,12.271,0c3.393,3.393,3.393,8.878,0,12.271l-57.153,57.153
		C147.63,224.777,145.408,225.627,143.186,225.627"/>
</g>
<path style="fill:#F38774;" d="M205.295,164.76l-9.919-9.919c-4.044-4.035-4.044-10.587,0-14.622l9.919-9.919
	c4.035-4.044,10.587-4.044,14.622,0l9.919,9.919c4.044,4.035,4.044,10.587,0,14.622l-9.919,9.919
	C215.882,168.795,209.33,168.795,205.295,164.76"/>
<path style="fill:#FDC693;" d="M420.881,95.458c0,33.549-27.197,60.746-60.746,60.746s-60.746-27.197-60.746-60.746
	s27.197-60.746,60.746-60.746S420.881,61.909,420.881,95.458"/>
<path style="fill:#8697CB;" d="M397.694,174.514c-11.533,4.955-24.229,7.723-37.558,7.723c-13.338,0-26.025-2.768-37.567-7.723
	c-24.159,13.277-40.535,38.955-40.535,68.469v43.39h156.203v-43.39C438.237,213.469,421.853,187.791,397.694,174.514"/>
<polygon style="fill:#F0C419;" points="386.169,208.271 360.136,260.339 334.102,208.271 360.136,182.237 "/>
<path style="fill:#ECF1F1;" d="M472.949,416.542H39.051c-19.17,0-34.712-15.542-34.712-34.712v-34.712h503.322v34.712
	C507.661,401,492.119,416.542,472.949,416.542"/>
<polygon style="fill:#BDC3C7;" points="334.102,503.322 177.898,503.322 203.932,416.542 308.068,416.542 "/>
<path style="fill:#ECF1F1;" d="M351.458,512H160.542c-4.799,0-8.678-3.879-8.678-8.678c0-4.799,3.879-8.678,8.678-8.678h190.915
	c4.799,0,8.678,3.879,8.678,8.678C360.136,508.121,356.257,512,351.458,512"/>
<polygon style="fill:#B66E30;" points="47.729,347.119 464.271,347.119 464.271,286.373 47.729,286.373 "/>
<path style="fill:#E64C3C;" d="M125.831,60.746H56.407c-4.799,0-8.678-3.879-8.678-8.678s3.879-8.678,8.678-8.678h69.424
	c4.799,0,8.678,3.879,8.678,8.678S130.629,60.746,125.831,60.746"/>
<path style="fill:#F0C419;" d="M91.119,95.458H56.407c-4.799,0-8.678-3.879-8.678-8.678s3.879-8.678,8.678-8.678h34.712
	c4.799,0,8.678,3.879,8.678,8.678S95.918,95.458,91.119,95.458"/>
</svg>