<?xml version="1.0" encoding="iso-8859-1"?>
<!-- Uploaded to: SVG Repo, www.svgrepo.com, Generator: SVG Repo Mixer Tools -->
<svg height="800px" width="800px" version="1.1" id="Layer_1" xmlns="http://www.w3.org/2000/svg" xmlns:xlink="http://www.w3.org/1999/xlink" 
	 viewBox="0 0 512 512" xml:space="preserve">
<path style="fill:#6E6057;" d="M83.478,122.435c-27.664,0-50.087,22.424-50.087,50.087c0,116.191,0-30.343,0,83.478h144.696V122.435
	H83.478z"/>
<path style="fill:#8DB051;" d="M33.391,232.726l-18.717,18.387c-1.514,1.513-2.727,3.225-4.019,4.886
	C3.866,264.736,0,275.289,0,286.527v52.951c0,27.619,22.468,50.087,50.087,50.087h128V232.726H33.391z"/>
<path style="fill:#8C6D50;" d="M50.087,289.391H0v33.391h50.087c9.217,0,16.696-7.473,16.696-16.696S59.304,289.391,50.087,289.391z
	"/>
<path style="fill:#E2E7EC;" d="M461.913,55.652h-267.13c-27.619,0-50.087,22.468-50.087,50.087v283.826h317.217
	c27.619,0,50.087-22.468,50.087-50.087V105.739C512,78.12,489.532,55.652,461.913,55.652z"/>
<path style="fill:#CCD5E0;" d="M461.913,55.652H328.348v333.913h133.565c27.619,0,50.087-22.468,50.087-50.087V105.739
	C512,78.12,489.532,55.652,461.913,55.652z"/>
<g>
	<path style="fill:#B7C5D2;" d="M428.522,155.826H228.174c-9.217,0-16.696-7.473-16.696-16.696s7.479-16.696,16.696-16.696h200.348
		c9.217,0,16.696,7.473,16.696,16.696S437.739,155.826,428.522,155.826z"/>
	<path style="fill:#B7C5D2;" d="M428.522,289.391H228.174c-9.217,0-16.696-7.473-16.696-16.696c0-9.223,7.479-16.696,16.696-16.696
		h200.348c9.217,0,16.696,7.473,16.696,16.696C445.217,281.918,437.739,289.391,428.522,289.391z"/>
	<path style="fill:#B7C5D2;" d="M428.522,222.609H228.174c-9.217,0-16.696-7.473-16.696-16.696s7.479-16.696,16.696-16.696h200.348
		c9.217,0,16.696,7.473,16.696,16.696S437.739,222.609,428.522,222.609z"/>
</g>
<path style="fill:#6E6057;" d="M144.696,456.348c-36.826,0-66.783-29.956-66.783-66.783s29.956-66.783,66.783-66.783
	s66.783,29.956,66.783,66.783S181.522,456.348,144.696,456.348z"/>
<path style="fill:#615349;" d="M211.478,389.565c0-36.826-29.956-66.783-66.783-66.783v133.565
	C181.522,456.348,211.478,426.391,211.478,389.565z"/>
<path style="fill:#DBDFE3;" d="M144.696,356.174c-18.413,0-33.391,14.978-33.391,33.391c0,18.413,14.978,33.391,33.391,33.391
	s33.391-14.978,33.391-33.391C178.087,371.152,163.109,356.174,144.696,356.174z"/>
<path style="fill:#CAD1D7;" d="M178.087,389.565c0-18.413-14.978-33.391-33.391-33.391v66.783
	C163.109,422.957,178.087,407.978,178.087,389.565z"/>
<path style="fill:#6E6057;" d="M378.435,456.348c-36.826,0-66.783-29.956-66.783-66.783s29.956-66.783,66.783-66.783
	s66.783,29.956,66.783,66.783S415.261,456.348,378.435,456.348z"/>
<path style="fill:#615349;" d="M445.217,389.565c0-36.826-29.956-66.783-66.783-66.783v133.565
	C415.261,456.348,445.217,426.391,445.217,389.565z"/>
<path style="fill:#DBDFE3;" d="M378.435,356.174c-18.413,0-33.391,14.978-33.391,33.391c0,18.413,14.978,33.391,33.391,33.391
	c18.413,0,33.391-14.978,33.391-33.391C411.826,371.152,396.848,356.174,378.435,356.174z"/>
<path style="fill:#CAD1D7;" d="M411.826,389.565c0-18.413-14.978-33.391-33.391-33.391v66.783
	C396.848,422.957,411.826,407.978,411.826,389.565z"/>
<g>
	<path style="fill:#A4B5C5;" d="M428.522,256H328.348v33.391h100.174c9.217,0,16.696-7.473,16.696-16.696
		C445.217,263.473,437.739,256,428.522,256z"/>
	<path style="fill:#A4B5C5;" d="M428.522,189.217H328.348v33.391h100.174c9.217,0,16.696-7.473,16.696-16.696
		S437.739,189.217,428.522,189.217z"/>
	<path style="fill:#A4B5C5;" d="M428.522,122.435H328.348v33.391h100.174c9.217,0,16.696-7.473,16.696-16.696
		S437.739,122.435,428.522,122.435z"/>
</g>
</svg>